<?xml version="1.0" standalone="no"?>
<!DOCTYPE svg PUBLIC "-//W3C//DTD SVG 20010904//EN"
 "http://www.w3.org/TR/2001/REC-SVG-20010904/DTD/svg10.dtd">
<svg version="1.0" xmlns="http://www.w3.org/2000/svg"
 width="512.000000pt" height="512.000000pt" viewBox="0 0 512.000000 512.000000"
 preserveAspectRatio="xMidYMid meet">
<metadata>
Created by potrace 1.11, written by Peter Selinger 2001-2013
</metadata>
<g transform="translate(0.000000,512.000000) scale(0.100000,-0.100000)"
fill="#000000" stroke="none">
<path d="M2320 4764 c-150 -18 -168 -21 -248 -40 -37 -8 -75 -17 -85 -19 -10
-2 -78 -24 -152 -49 -416 -142 -805 -429 -1064 -786 -33 -47 -65 -89 -69 -95
-18 -25 -93 -157 -129 -230 -85 -170 -148 -355 -189 -550 -4 -20 -9 -50 -19
-110 -26 -160 -27 -495 -1 -635 2 -14 7 -45 10 -70 3 -24 18 -92 32 -150 137
-556 488 -1041 976 -1349 232 -146 510 -254 773 -301 39 -7 79 -14 90 -16 128
-24 517 -24 645 1 112 21 147 29 235 51 222 56 462 164 665 299 177 118 405
328 514 475 22 30 44 57 47 60 24 20 143 220 199 335 61 126 157 375 144 375
-2 0 -1 8 5 18 9 17 46 185 56 257 14 100 20 190 20 320 0 157 -9 270 -29 380
-3 17 -8 46 -11 65 -23 130 -101 362 -173 514 -244 508 -669 905 -1188 1109
-93 37 -274 93 -329 103 -16 3 -48 9 -70 14 -22 5 -64 11 -94 15 -30 4 -63 9
-75 11 -54 12 -380 10 -486 -2z"/>
</g>
</svg>
